<svg width="89" height="15" viewBox="0 0 89 15" fill="none" xmlns="http://www.w3.org/2000/svg">
<path d="M7.40145 2.7816C7.67079 2.23593 8.4489 2.23594 8.71825 2.7816L9.77985 4.93229C9.88671 5.14878 10.0932 5.2989 10.3321 5.33382L12.7073 5.68099C13.3093 5.76898 13.5492 6.50898 13.1134 6.93349L11.3958 8.60637C11.2227 8.77506 11.1436 9.01819 11.1845 9.25647L11.5897 11.6189C11.6925 12.2188 11.0629 12.6762 10.5242 12.3929L8.4016 11.2766C8.18765 11.1641 7.93204 11.1641 7.71809 11.2766L5.59546 12.3929C5.0568 12.6762 4.42715 12.2188 4.53003 11.6189L4.93522 9.25647C4.97609 9.01819 4.89704 8.77506 4.72385 8.60637L3.00631 6.93349C2.57047 6.50898 2.81041 5.76898 3.41242 5.68099L5.78764 5.33382C6.02652 5.2989 6.23298 5.14878 6.33984 4.93229L7.40145 2.7816Z" fill="#FFD600"/>
<path d="M25.7574 2.7816C26.0267 2.23593 26.8049 2.23594 27.0742 2.7816L28.1358 4.93229C28.2427 5.14878 28.4491 5.2989 28.688 5.33382L31.0632 5.68099C31.6652 5.76898 31.9052 6.50898 31.4693 6.93349L29.7518 8.60637C29.5786 8.77506 29.4996 9.01819 29.5404 9.25647L29.9456 11.6189C30.0485 12.2188 29.4189 12.6762 28.8802 12.3929L26.7576 11.2766C26.5436 11.1641 26.288 11.1641 26.074 11.2766L23.9514 12.3929C23.4128 12.6762 22.7831 12.2188 22.886 11.6189L23.2912 9.25647C23.332 9.01819 23.253 8.77506 23.0798 8.60637L21.3623 6.93349C20.9264 6.50898 21.1664 5.76898 21.7684 5.68099L24.1436 5.33382C24.3825 5.2989 24.5889 5.14878 24.6958 4.93229L25.7574 2.7816Z" fill="#FFD600"/>
<path d="M44.1135 2.7816C44.3829 2.23593 45.161 2.23594 45.4303 2.7816L46.4919 4.93229C46.5988 5.14878 46.8053 5.2989 47.0442 5.33382L49.4194 5.68099C50.0214 5.76898 50.2613 6.50898 49.8255 6.93349L48.1079 8.60637C47.9347 8.77506 47.8557 9.01819 47.8966 9.25647L48.3018 11.6189C48.4046 12.2188 47.775 12.6762 47.2363 12.3929L45.1137 11.2766C44.8998 11.1641 44.6441 11.1641 44.4302 11.2766L42.3076 12.3929C41.7689 12.6762 41.1392 12.2188 41.2421 11.6189L41.6473 9.25647C41.6882 9.01819 41.6091 8.77506 41.4359 8.60637L39.7184 6.93349C39.2826 6.50898 39.5225 5.76898 40.1245 5.68099L42.4997 5.33382C42.7386 5.2989 42.9451 5.14878 43.0519 4.93229L44.1135 2.7816Z" fill="#FFD600"/>
<path d="M62.4697 2.7816C62.739 2.23593 63.5171 2.23594 63.7865 2.7816L64.8481 4.93229C64.9549 5.14878 65.1614 5.2989 65.4003 5.33382L67.7755 5.68099C68.3775 5.76898 68.6175 6.50898 68.1816 6.93349L66.4641 8.60637C66.2909 8.77506 66.2118 9.01819 66.2527 9.25647L66.6579 11.6189C66.7608 12.2188 66.1311 12.6762 65.5925 12.3929L63.4698 11.2766C63.2559 11.1641 63.0003 11.1641 62.7863 11.2766L60.6637 12.3929C60.125 12.6762 59.4954 12.2188 59.5983 11.6189L60.0035 9.25647C60.0443 9.01819 59.9653 8.77506 59.7921 8.60637L58.0745 6.93349C57.6387 6.50898 57.8786 5.76898 58.4807 5.68099L60.8559 5.33382C61.0948 5.2989 61.3012 5.14878 61.4081 4.93229L62.4697 2.7816Z" fill="#FFD600"/>
<path d="M80.8258 2.7816C81.0952 2.23593 81.8733 2.23594 82.1426 2.7816L83.2042 4.93229C83.3111 5.14878 83.5175 5.2989 83.7564 5.33382L86.1316 5.68099C86.7337 5.76898 86.9736 6.50898 86.5378 6.93349L84.8202 8.60637C84.647 8.77506 84.568 9.01819 84.6088 9.25647L85.014 11.6189C85.1169 12.2188 84.4873 12.6762 83.9486 12.3929L81.826 11.2766C81.612 11.1641 81.3564 11.1641 81.1425 11.2766L79.0198 12.3929C78.4812 12.6762 77.8515 12.2188 77.9544 11.6189L78.3596 9.25647C78.4005 9.01819 78.3214 8.77506 78.1482 8.60637L76.4307 6.93349C75.9948 6.50898 76.2348 5.76898 76.8368 5.68099L79.212 5.33382C79.4509 5.2989 79.6574 5.14878 79.7642 4.93229L80.8258 2.7816Z" fill="#FFD600"/>
</svg>
