<svg width="49" height="49" viewBox="0 0 49 49" fill="none" xmlns="http://www.w3.org/2000/svg">
<g filter="url(#filter0_b_1_209)">
<rect x="0.588867" y="0.814453" width="48" height="48" rx="24" fill="url(#paint0_linear_1_209)"/>
<path d="M35.0489 18.8145C34.2789 19.1645 33.4489 19.3945 32.5889 19.5045C33.4689 18.9745 34.1489 18.1345 34.4689 17.1245C33.6389 17.6245 32.7189 17.9745 31.7489 18.1745C30.9589 17.3145 29.8489 16.8145 28.5889 16.8145C26.2389 16.8145 24.3189 18.7345 24.3189 21.1045C24.3189 21.4445 24.3589 21.7745 24.4289 22.0845C20.8689 21.9045 17.6989 20.1945 15.5889 17.6045C15.2189 18.2345 15.0089 18.9745 15.0089 19.7545C15.0089 21.2445 15.7589 22.5645 16.9189 23.3145C16.2089 23.3145 15.5489 23.1145 14.9689 22.8145V22.8445C14.9689 24.9245 16.4489 26.6645 18.4089 27.0545C17.7796 27.2267 17.119 27.2506 16.4789 27.1245C16.7505 27.9769 17.2824 28.7229 17.9999 29.2574C18.7174 29.7919 19.5843 30.0881 20.4789 30.1045C18.9625 31.3049 17.0829 31.9538 15.1489 31.9445C14.8089 31.9445 14.4689 31.9245 14.1289 31.8845C16.0289 33.1045 18.2889 33.8145 20.7089 33.8145C28.5889 33.8145 32.9189 27.2745 32.9189 21.6045C32.9189 21.4145 32.9189 21.2345 32.9089 21.0445C33.7489 20.4445 34.4689 19.6845 35.0489 18.8145Z" fill="#F1F1F1"/>
</g>
<defs>
<filter id="filter0_b_1_209" x="-24.4111" y="-24.1855" width="98" height="98" filterUnits="userSpaceOnUse" color-interpolation-filters="sRGB">
<feFlood flood-opacity="0" result="BackgroundImageFix"/>
<feGaussianBlur in="BackgroundImageFix" stdDeviation="12.5"/>
<feComposite in2="SourceAlpha" operator="in" result="effect1_backgroundBlur_1_209"/>
<feBlend mode="normal" in="SourceGraphic" in2="effect1_backgroundBlur_1_209" result="shape"/>
</filter>
<linearGradient id="paint0_linear_1_209" x1="24.5889" y1="0.814453" x2="24.5889" y2="48.8145" gradientUnits="userSpaceOnUse">
<stop stop-color="#3F81FC"/>
<stop offset="1" stop-color="#1961E9"/>
</linearGradient>
</defs>
</svg>
