<svg width="45" height="45" viewBox="0 0 45 45" fill="none" xmlns="http://www.w3.org/2000/svg">
<path d="M22.718 6.18058C25.0817 6.1845 27.3478 7.12538 29.0194 8.79675C30.691 10.4684 31.6317 12.7342 31.6356 15.0982C31.6439 17.5577 30.623 19.9084 28.8195 21.5806C27.1562 23.2031 25.7471 25.0672 24.6395 27.1101L23.4221 29.2367C23.2814 29.493 23.0106 29.6509 22.7182 29.6475C22.4221 29.6499 22.1476 29.493 21.9995 29.2367L20.6356 26.8314C19.5036 24.8526 18.1017 23.041 16.4703 21.4487C14.9202 19.9382 13.9736 17.9152 13.8072 15.7575C13.6407 13.5997 14.2658 11.4552 15.5659 9.72515C16.8658 7.99488 18.7515 6.79739 20.8703 6.35664C21.4789 6.23707 22.0979 6.17814 22.7181 6.18059L22.718 6.18058ZM22.7181 4.71401C22.0186 4.71032 21.3208 4.77932 20.6355 4.91927C18.1561 5.41943 15.945 6.80869 14.4183 8.82527C12.8915 10.8419 12.1547 13.3471 12.3462 15.869C12.5377 18.3912 13.6443 20.7562 15.4581 22.5193C16.9807 24.0281 18.2929 25.7348 19.3594 27.594L20.7381 29.9993C21.1472 30.7059 21.9017 31.1408 22.7181 31.1408C23.5345 31.1408 24.2891 30.7059 24.6981 29.9993L25.9155 27.8727C26.9543 25.9602 28.2689 24.2108 29.8168 22.6806C31.3457 21.2604 32.4109 19.4118 32.8722 17.3763C33.3338 15.341 33.1705 13.214 32.4035 11.273C31.6367 9.33203 30.3019 7.66757 28.5739 6.4973C26.846 5.32709 24.8051 4.70562 22.7181 4.71398L22.7181 4.71401ZM22.7181 12.0475C23.496 12.0475 24.2422 12.3564 24.7924 12.9067C25.3424 13.4567 25.6516 14.2028 25.6516 14.9807C25.6516 15.7588 25.3424 16.5047 24.7924 17.055C24.2422 17.605 23.496 17.9141 22.7181 17.9141C21.9403 17.9141 21.1941 17.605 20.6439 17.055C20.0938 16.5047 19.7847 15.7588 19.7847 14.9807C19.7847 14.2028 20.0938 13.4567 20.6439 12.9067C21.1941 12.3564 21.9403 12.0475 22.7181 12.0475ZM22.7181 10.581V10.5807C21.5511 10.5807 20.432 11.0443 19.607 11.8695C18.7817 12.6948 18.3181 13.814 18.3181 14.9807C18.3181 16.1477 18.7817 17.2669 19.607 18.0921C20.432 18.9171 21.5511 19.3807 22.7181 19.3807C23.8851 19.3807 25.0043 18.9171 25.8293 18.0921C26.6546 17.2669 27.1181 16.1477 27.1181 14.9807C27.1181 13.814 26.6546 12.6948 25.8293 11.8695C25.0043 11.0443 23.8851 10.5807 22.7181 10.5807V10.581Z" fill="white"/>
</svg>
