<svg width="10" height="10" viewBox="0 0 10 10" fill="none" xmlns="http://www.w3.org/2000/svg">
<path fill-rule="evenodd" clip-rule="evenodd" d="M2.91666 8.12487C2.91668 8.24847 2.9551 8.36928 3.02705 8.47204C3.099 8.5748 3.20125 8.65489 3.32088 8.70219C3.44051 8.74948 3.57214 8.76186 3.69914 8.73775C3.82614 8.71365 3.9428 8.65414 4.03437 8.56676L7.30828 5.44165C7.43103 5.32444 7.49999 5.16549 7.49999 4.99976C7.49999 4.83402 7.43103 4.67507 7.30828 4.55787L4.03437 1.43275C3.9428 1.34537 3.82614 1.28586 3.69914 1.26176C3.57214 1.23765 3.44051 1.25003 3.32088 1.29733C3.20125 1.34462 3.099 1.42471 3.02705 1.52747C2.9551 1.63023 2.91668 1.75105 2.91666 1.87464V8.12487Z" fill="#F1F1F1"/>
</svg>
