<svg width="31" height="31" viewBox="0 0 31 31" fill="none" xmlns="http://www.w3.org/2000/svg">
<path d="M15.7203 18.5464V18.5464H15.7178C15.6153 18.5464 15.5165 18.5275 15.418 18.4882C15.3156 18.4474 15.2461 18.3993 15.1977 18.3505L15.1963 18.3491L9.44633 12.5991C9.32009 12.4728 9.24902 12.3127 9.24902 12.0776C9.24902 11.8425 9.32009 11.6824 9.44633 11.5562C9.57256 11.43 9.73267 11.3589 9.96777 11.3589C10.2029 11.3589 10.363 11.43 10.4892 11.5562L15.3642 16.4312L15.7178 16.7847L16.0713 16.4312L20.9463 11.5562C21.0726 11.43 21.2327 11.3589 21.4678 11.3589C21.7029 11.3589 21.863 11.43 21.9892 11.5562L22.3424 11.203L21.9892 11.5562C22.1155 11.6824 22.1865 11.8425 22.1865 12.0776C22.1865 12.3127 22.1155 12.4728 21.9892 12.5991L22.3428 12.9526L21.9892 12.5991L16.2392 18.3491C16.1589 18.4294 16.0846 18.4742 16.0172 18.4984C15.9305 18.5297 15.8328 18.547 15.7203 18.5464Z" fill="#F1F1F1" stroke="#F1F1F1"/>
</svg>
