<svg width="41" height="41" viewBox="0 0 41 41" fill="none" xmlns="http://www.w3.org/2000/svg">
<rect x="0.717773" y="0.314453" width="40" height="40" rx="20" fill="url(#paint0_linear_1_429)"/>
<path d="M28.7178 20.3145C28.7178 15.9145 25.1178 12.3145 20.7178 12.3145C16.3178 12.3145 12.7178 15.9145 12.7178 20.3145C12.7178 24.3145 15.6178 27.6145 19.4178 28.2145V22.6145H17.4178V20.3145H19.4178V18.5145C19.4178 16.5145 20.6178 15.4145 22.4178 15.4145C23.3178 15.4145 24.2178 15.6145 24.2178 15.6145V17.6145H23.2178C22.2178 17.6145 21.9178 18.2145 21.9178 18.8145V20.3145H24.1178L23.7178 22.6145H21.8178V28.3145C25.8178 27.7145 28.7178 24.3145 28.7178 20.3145Z" fill="#F1F1F1"/>
<defs>
<linearGradient id="paint0_linear_1_429" x1="20.7178" y1="0.314453" x2="20.7178" y2="40.3145" gradientUnits="userSpaceOnUse">
<stop stop-color="#3F81FC"/>
<stop offset="1" stop-color="#1961E9"/>
</linearGradient>
</defs>
</svg>
