<svg width="41" height="41" viewBox="0 0 41 41" fill="none" xmlns="http://www.w3.org/2000/svg">
<rect x="0.717773" y="0.314453" width="40" height="40" rx="20" fill="url(#paint0_linear_1_434)"/>
<path d="M13.8177 19.4109C18.1126 17.5763 20.9766 16.3669 22.4096 15.7825C26.5011 14.114 27.3513 13.8242 27.9054 13.8145C28.0273 13.8125 28.2998 13.8422 28.4763 13.9826C28.6254 14.1012 28.6664 14.2613 28.686 14.3738C28.7056 14.4862 28.7301 14.7423 28.7107 14.9424C28.4889 17.2264 27.5296 22.769 27.0415 25.3271C26.835 26.4096 26.4283 26.7725 26.0346 26.808C25.1791 26.8852 24.5294 26.2537 23.7007 25.7211C22.404 24.8878 21.6715 24.369 20.4128 23.5558C18.9582 22.616 19.9012 22.0995 20.7301 21.2554C20.9471 21.0344 24.7167 17.6728 24.7897 17.3679C24.7988 17.3297 24.8073 17.1876 24.7212 17.1125C24.635 17.0374 24.5079 17.0631 24.4161 17.0835C24.2861 17.1124 22.2146 18.4548 18.2017 21.1106C17.6137 21.5064 17.0811 21.6993 16.6039 21.6892C16.0779 21.678 15.066 21.3976 14.3138 21.1578C13.3911 20.8638 12.6578 20.7083 12.7216 20.209C12.7549 19.9488 13.1203 19.6828 13.8177 19.4109Z" fill="#F1F1F1"/>
<defs>
<linearGradient id="paint0_linear_1_434" x1="20.7178" y1="0.314453" x2="20.7178" y2="40.3145" gradientUnits="userSpaceOnUse">
<stop stop-color="#3F81FC"/>
<stop offset="1" stop-color="#1961E9"/>
</linearGradient>
</defs>
</svg>
