<svg width="41" height="41" viewBox="0 0 41 41" fill="none" xmlns="http://www.w3.org/2000/svg">
<rect x="0.717773" y="0.314453" width="40" height="40" rx="20" fill="url(#paint0_linear_1_431)"/>
<path d="M20.7178 13.7602C22.8383 13.7602 23.1274 13.7602 23.9949 13.7602C24.766 13.7602 25.1515 13.953 25.4407 14.0494C25.8262 14.2422 26.1154 14.3386 26.4045 14.6277C26.6937 14.9169 26.8864 15.206 26.9828 15.5916C27.0792 15.8807 27.1756 16.2663 27.272 17.0373C27.272 17.9048 27.272 18.0976 27.272 20.3145C27.272 22.5313 27.272 22.7241 27.272 23.5916C27.272 24.3626 27.0792 24.7482 26.9828 25.0373C26.7901 25.4229 26.6937 25.712 26.4045 26.0012C26.1154 26.2904 25.8262 26.4831 25.4407 26.5795C25.1515 26.6759 24.766 26.7723 23.9949 26.8687C23.1274 26.8687 22.9346 26.8687 20.7178 26.8687C18.5009 26.8687 18.3081 26.8687 17.4407 26.8687C16.6696 26.8687 16.284 26.6759 15.9949 26.5795C15.6093 26.3867 15.3202 26.2904 15.031 26.0012C14.7419 25.712 14.5491 25.4229 14.4527 25.0373C14.3563 24.7482 14.2599 24.3626 14.1636 23.5916C14.1636 22.7241 14.1636 22.5313 14.1636 20.3145C14.1636 18.0976 14.1636 17.9048 14.1636 17.0373C14.1636 16.2663 14.3563 15.8807 14.4527 15.5916C14.6455 15.206 14.7419 14.9169 15.031 14.6277C15.3202 14.3386 15.6093 14.1458 15.9949 14.0494C16.284 13.953 16.6696 13.8566 17.4407 13.7602C18.3081 13.7602 18.5973 13.7602 20.7178 13.7602ZM20.7178 12.3145C18.5009 12.3145 18.3081 12.3145 17.4407 12.3145C16.5732 12.3145 15.9949 12.5072 15.513 12.7C15.031 12.8928 14.5491 13.1819 14.0672 13.6639C13.5852 14.1458 13.3925 14.5313 13.1033 15.1096C12.9105 15.5916 12.8142 16.1699 12.7178 17.0373C12.7178 17.9048 12.7178 18.194 12.7178 20.3145C12.7178 22.5313 12.7178 22.7241 12.7178 23.5916C12.7178 24.459 12.9105 25.0373 13.1033 25.5193C13.2961 26.0012 13.5852 26.4831 14.0672 26.9651C14.5491 27.447 14.9346 27.6398 15.513 27.9289C15.9949 28.1217 16.5732 28.2181 17.4407 28.3145C18.3081 28.3145 18.5973 28.3145 20.7178 28.3145C22.8383 28.3145 23.1274 28.3145 23.9949 28.3145C24.8624 28.3145 25.4407 28.1217 25.9226 27.9289C26.4045 27.7361 26.8864 27.447 27.3684 26.9651C27.8503 26.4831 28.0431 26.0976 28.3322 25.5193C28.525 25.0373 28.6214 24.459 28.7178 23.5916C28.7178 22.7241 28.7178 22.4349 28.7178 20.3145C28.7178 18.194 28.7178 17.9048 28.7178 17.0373C28.7178 16.1699 28.525 15.5916 28.3322 15.1096C28.1395 14.6277 27.8503 14.1458 27.3684 13.6639C26.8864 13.1819 26.5009 12.9892 25.9226 12.7C25.4407 12.5072 24.8624 12.4108 23.9949 12.3145C23.1274 12.3145 22.9346 12.3145 20.7178 12.3145Z" fill="#F1F1F1"/>
<path d="M20.7178 16.1699C18.4045 16.1699 16.5732 18.0012 16.5732 20.3145C16.5732 22.6277 18.4045 24.459 20.7178 24.459C23.031 24.459 24.8624 22.6277 24.8624 20.3145C24.8624 18.0012 23.031 16.1699 20.7178 16.1699ZM20.7178 23.0132C19.272 23.0132 18.019 21.8566 18.019 20.3145C18.019 18.8687 19.1756 17.6157 20.7178 17.6157C22.1636 17.6157 23.4166 18.7723 23.4166 20.3145C23.4166 21.7602 22.1636 23.0132 20.7178 23.0132Z" fill="#F1F1F1"/>
<path d="M24.9587 17.0373C25.4911 17.0373 25.9226 16.6058 25.9226 16.0735C25.9226 15.5412 25.4911 15.1096 24.9587 15.1096C24.4264 15.1096 23.9949 15.5412 23.9949 16.0735C23.9949 16.6058 24.4264 17.0373 24.9587 17.0373Z" fill="#F1F1F1"/>
<defs>
<linearGradient id="paint0_linear_1_431" x1="20.7178" y1="0.314453" x2="20.7178" y2="40.3145" gradientUnits="userSpaceOnUse">
<stop stop-color="#3F81FC"/>
<stop offset="1" stop-color="#1961E9"/>
</linearGradient>
</defs>
</svg>
