<svg width="41" height="41" viewBox="0 0 41 41" fill="none" xmlns="http://www.w3.org/2000/svg">
<rect x="0.717773" y="0.314453" width="40" height="40" rx="20" fill="url(#paint0_linear_1_436)"/>
<path fill-rule="evenodd" clip-rule="evenodd" d="M26.3178 14.6145C24.8178 13.1145 22.8178 12.3145 20.7178 12.3145C16.3178 12.3145 12.7178 15.9145 12.7178 20.3145C12.7178 21.7145 13.1178 23.1145 13.8178 24.3145L12.7178 28.3145L16.9178 27.2145C18.1178 27.8145 19.4178 28.2145 20.7178 28.2145C25.1178 28.2145 28.7178 24.6145 28.7178 20.2145C28.7178 18.1145 27.8178 16.1145 26.3178 14.6145ZM20.7178 26.9145C19.5178 26.9145 18.3178 26.6145 17.3178 26.0145L17.1178 25.9145L14.6178 26.6145L15.3178 24.2145L15.1178 23.9145C14.4178 22.8145 14.1178 21.6145 14.1178 20.4145C14.1178 16.8145 17.1178 13.8145 20.7178 13.8145C22.5178 13.8145 24.1178 14.5145 25.4178 15.7145C26.7178 17.0145 27.3178 18.6145 27.3178 20.4145C27.3178 23.9145 24.4178 26.9145 20.7178 26.9145ZM24.3178 21.9145C24.1178 21.8145 23.1178 21.3145 22.9178 21.3145C22.7178 21.2145 22.6178 21.2145 22.5178 21.4145C22.4178 21.6145 22.0178 22.0145 21.9178 22.2145C21.8178 22.3145 21.7178 22.3145 21.5178 22.3145C21.3178 22.2145 20.7178 22.0145 19.9178 21.3145C19.3178 20.8145 18.9178 20.1145 18.8178 19.9145C18.7178 19.7145 18.8178 19.6145 18.9178 19.5145C19.0178 19.4145 19.1178 19.3145 19.2178 19.2145C19.3178 19.1145 19.3178 19.0145 19.4178 18.9145C19.5178 18.8145 19.4178 18.7145 19.4178 18.6145C19.4178 18.5145 19.0178 17.5145 18.8178 17.1145C18.7178 16.8145 18.5178 16.8145 18.4178 16.8145C18.3178 16.8145 18.2178 16.8145 18.0178 16.8145C17.9178 16.8145 17.7178 16.8145 17.5178 17.0145C17.3178 17.2145 16.8178 17.7145 16.8178 18.7145C16.8178 19.7145 17.5178 20.6145 17.6178 20.8145C17.7178 20.9145 19.0178 23.0145 21.0178 23.8145C22.7178 24.5145 23.0178 24.3145 23.4178 24.3145C23.8178 24.3145 24.6178 23.8145 24.7178 23.4145C24.9178 22.9145 24.9178 22.5145 24.8178 22.5145C24.7178 22.0145 24.5178 22.0145 24.3178 21.9145Z" fill="#F1F1F1"/>
<defs>
<linearGradient id="paint0_linear_1_436" x1="20.7178" y1="0.314453" x2="20.7178" y2="40.3145" gradientUnits="userSpaceOnUse">
<stop stop-color="#3F81FC"/>
<stop offset="1" stop-color="#1961E9"/>
</linearGradient>
</defs>
</svg>
