<svg width="10" height="11" viewBox="0 0 10 11" fill="none" xmlns="http://www.w3.org/2000/svg">
<path d="M5.002 0.77531C5.96899 0.776917 6.89602 1.16182 7.57986 1.84556C8.26371 2.52941 8.64852 3.45633 8.65012 4.42342C8.65353 5.42959 8.23589 6.39125 7.49809 7.07533C6.81767 7.73907 6.2412 8.50167 5.78809 9.33739L5.29008 10.2074C5.23252 10.3122 5.12173 10.3768 5.00211 10.3754C4.88097 10.3764 4.76867 10.3122 4.70809 10.2074L4.15011 9.22337C3.68705 8.41389 3.11352 7.67277 2.44613 7.02138C1.81201 6.40344 1.42478 5.57585 1.35669 4.69313C1.2886 3.81042 1.54432 2.93312 2.07618 2.22536C2.60795 1.51753 3.37938 1.02764 4.24613 0.847336C4.49514 0.79842 4.74836 0.774312 5.00208 0.775315L5.002 0.77531ZM5.00208 0.17535C4.71591 0.173844 4.43045 0.20207 4.15009 0.259323C3.13579 0.463931 2.23126 1.03227 1.60668 1.85723C0.98211 2.6822 0.68066 3.70706 0.759012 4.73877C0.837361 5.77056 1.29006 6.73806 2.03208 7.45934C2.65495 8.07659 3.19174 8.77478 3.62806 9.53536L4.19208 10.5193C4.35942 10.8084 4.6681 10.9863 5.00208 10.9863C5.33606 10.9863 5.64473 10.8084 5.81208 10.5193L6.31009 9.64937C6.73507 8.86699 7.27286 8.15131 7.90608 7.52532C8.53155 6.94434 8.96731 6.18808 9.15602 5.35537C9.34486 4.52277 9.27807 3.6526 8.96427 2.85857C8.65058 2.06454 8.10454 1.38363 7.3976 0.904879C6.69076 0.426157 5.85585 0.17192 5.00206 0.17534L5.00208 0.17535ZM5.00208 3.17543C5.32029 3.17543 5.62555 3.3018 5.85065 3.5269C6.07565 3.7519 6.20212 4.05715 6.20212 4.37536C6.20212 4.69368 6.07565 4.99883 5.85065 5.22393C5.62555 5.44893 5.32029 5.5754 5.00208 5.5754C4.68387 5.5754 4.37861 5.44893 4.15351 5.22393C3.92851 4.99883 3.80204 4.69368 3.80204 4.37536C3.80204 4.05715 3.92851 3.7519 4.15351 3.5269C4.37861 3.3018 4.68387 3.17543 5.00208 3.17543ZM5.00208 2.57547V2.57537C4.52467 2.57537 4.06682 2.76501 3.72932 3.10261C3.39172 3.44021 3.20208 3.89806 3.20208 4.37537C3.20208 4.85278 3.39172 5.31062 3.72932 5.64822C4.06682 5.98572 4.52467 6.17536 5.00208 6.17536C5.47949 6.17536 5.93734 5.98572 6.27484 5.64822C6.61244 5.31062 6.80208 4.85278 6.80208 4.37537C6.80208 3.89806 6.61244 3.44021 6.27484 3.10261C5.93734 2.76501 5.47949 2.57537 5.00208 2.57537V2.57547Z" fill="white"/>
</svg>
