<svg width="45" height="45" viewBox="0 0 45 45" fill="none" xmlns="http://www.w3.org/2000/svg">
<path fill-rule="evenodd" clip-rule="evenodd" d="M6.38636 6.61671C6.37826 6.62236 6.37015 6.62825 6.3623 6.63414C5.60851 7.18316 5.11816 8.07301 5.11816 9.07627V26.6888C5.11816 27.6891 5.60555 28.5762 6.3557 29.126L6.36748 29.1348C6.37313 29.1388 6.37853 29.1427 6.38418 29.1466L6.38958 29.1503C6.88311 29.5017 7.48637 29.7082 8.13776 29.7082H37.235C37.8864 29.7082 38.4897 29.5014 38.9832 29.1503L38.9886 29.1466C38.994 29.1427 38.9996 29.1388 39.005 29.1348L39.0168 29.126C39.7669 28.5765 40.2543 27.6891 40.2543 26.6888V9.07627C40.2543 8.07301 39.764 7.18345 39.0102 6.63414C39.0023 6.62825 38.9942 6.62236 38.9861 6.61671C38.4919 6.26412 37.8874 6.05664 37.2347 6.05664H8.13753C7.48489 6.05664 6.88039 6.26412 6.38614 6.61671H6.38636ZM19.1734 18.9681L8.59453 28.061H36.7784L26.1996 18.9681L23.2232 21.5264C22.9145 21.7918 22.4583 21.7918 22.1497 21.5264L19.1733 18.9681H19.1734ZM38.4504 8.43831C38.5508 8.62909 38.6076 8.84615 38.6076 9.07618V26.6888C38.6076 26.9191 38.5508 27.1361 38.4504 27.3266L27.463 17.8823L38.4504 8.43831ZM6.92253 8.43831L17.91 17.8826L6.92253 27.3269C6.8221 27.1363 6.76539 26.9193 6.76539 26.689V9.07643C6.76539 8.84612 6.82211 8.62907 6.92253 8.43856V8.43831ZM25.6728 17.249L36.7784 7.70351H8.59453L19.7014 17.2496L19.7095 17.2563L19.7186 17.2644L22.6869 19.8157L25.6539 17.2656L25.6642 17.2565L25.6733 17.2489L25.6728 17.249Z" fill="white"/>
</svg>
