<svg width="78" height="78" viewBox="0 0 78 78" fill="none" xmlns="http://www.w3.org/2000/svg">
<path fill-rule="evenodd" clip-rule="evenodd" d="M26.5394 27.0031C20.8497 27.6204 15.7477 28.659 11.5849 30.0077C8.1053 31.1352 5.25685 32.4873 3.26883 34.0102C1.28739 35.528 0.0927734 37.2714 0.0927734 39.1814C0.0927734 41.0914 1.28739 42.8347 3.26883 44.3526C5.25685 45.8755 8.1053 47.2276 11.5849 48.355C15.7477 49.7038 20.8497 50.7424 26.5394 51.3597C27.1567 57.0494 28.1953 62.1514 29.5441 66.3142C30.6715 69.7939 32.0237 72.6423 33.5466 74.6303C35.0644 76.6118 36.8078 77.8064 38.7178 77.8064C40.6278 77.8064 42.3711 76.6118 43.889 74.6303C45.4119 72.6423 46.764 69.7939 47.8914 66.3142C49.2402 62.1514 50.2788 57.0494 50.8961 51.3597C56.5858 50.7424 61.6878 49.7038 65.8506 48.355C69.3302 47.2276 72.1787 45.8755 74.1667 44.3526C76.1482 42.8347 77.3428 41.0914 77.3428 39.1814C77.3428 37.2714 76.1482 35.528 74.1667 34.0102C72.1787 32.4873 69.3302 31.1352 65.8506 30.0077C61.6878 28.659 56.5858 27.6204 50.8961 27.0031C50.2788 21.3133 49.2402 16.2113 47.8914 12.0485C46.764 8.56892 45.4119 5.72047 43.889 3.73245C42.3711 1.75102 40.6278 0.556396 38.7178 0.556396C36.8078 0.556396 35.0644 1.75102 33.5466 3.73245C32.0237 5.72047 30.6715 8.56892 29.5441 12.0485C28.1953 16.2113 27.1568 21.3133 26.5394 27.0031ZM27.3569 27.8205C27.0586 30.7649 26.873 33.8651 26.8162 37.073L35.2244 35.688L36.6093 27.2799C33.4015 27.3367 30.3013 27.5222 27.3569 27.8205ZM26.4444 27.9171C26.1494 30.8832 25.9679 34.0007 25.9153 37.2213L14.0157 39.1814L25.9153 41.1414C25.9679 44.3621 26.1493 47.4795 26.4444 50.4457C20.8848 49.8317 15.9118 48.8128 11.8618 47.5005C8.43294 46.3895 5.69066 45.0763 3.81507 43.6395C1.9329 42.1977 0.991029 40.6871 0.991029 39.1814C0.991029 37.6757 1.9329 36.1651 3.81507 34.7232C5.69066 33.2865 8.43294 31.9732 11.8618 30.8623C15.9118 29.55 20.8848 28.5311 26.4444 27.9171ZM27.4535 26.908C30.4196 26.613 33.5371 26.4315 36.7577 26.379L38.7178 14.4794L40.6778 26.379C43.8984 26.4315 47.0159 26.613 49.9821 26.908C49.3681 21.3484 48.3491 16.3754 47.0369 12.3254C45.9259 8.89656 44.6127 6.15429 43.1759 4.2787C41.7341 2.39652 40.2234 1.45465 38.7178 1.45465C37.2121 1.45465 35.7015 2.39652 34.2596 4.2787C32.8228 6.15429 31.5096 8.89656 30.3986 12.3254C29.0864 16.3754 28.0674 21.3484 27.4535 26.908ZM50.0787 27.8205C47.1343 27.5222 44.034 27.3367 40.8262 27.2799L42.2112 35.688L50.6193 37.073C50.5625 33.8651 50.3769 30.7649 50.0787 27.8205ZM50.9911 27.9171C51.2862 30.8832 51.4676 34.0007 51.5202 37.2213L63.4198 39.1814L51.5202 41.1414C51.4676 44.3621 51.2862 47.4796 50.9911 50.4457C56.5507 49.8317 61.5237 48.8128 65.5738 47.5005C69.0026 46.3895 71.7449 45.0763 73.6205 43.6395C75.5026 42.1977 76.4445 40.6871 76.4445 39.1814C76.4445 37.6757 75.5026 36.1651 73.6205 34.7233C71.7449 33.2865 69.0026 31.9732 65.5738 30.8623C61.5237 29.55 56.5507 28.5311 50.9911 27.9171ZM50.0787 50.5423C50.3769 47.5979 50.5625 44.4976 50.6193 41.2898L42.2112 42.6748L40.8262 51.0829C44.034 51.0261 47.1343 50.8406 50.0787 50.5423ZM36.7577 51.9838L38.7178 63.8834L40.6778 51.9838C43.8984 51.9312 47.0159 51.7498 49.9821 51.4547C49.3681 57.0144 48.3491 61.9873 47.0369 66.0374C45.9259 69.4662 44.6127 72.2085 43.1759 74.0841C41.7341 75.9663 40.2234 76.9081 38.7178 76.9081C37.2121 76.9081 35.7015 75.9663 34.2596 74.0841C32.8228 72.2085 31.5096 69.4662 30.3986 66.0374C29.0864 61.9873 28.0674 57.0144 27.4535 51.4547C30.4196 51.7498 33.5371 51.9312 36.7577 51.9838ZM36.6093 51.0829L35.2244 42.6748L26.8162 41.2898C26.873 44.4976 27.0586 47.5979 27.3569 50.5423C30.3013 50.8406 33.4015 51.0261 36.6093 51.0829Z" fill="#F1F1F1"/>
</svg>
