<svg width="22" height="28" viewBox="0 0 22 28" fill="none" xmlns="http://www.w3.org/2000/svg">
<path d="M10.718 2.18058C13.0817 2.1845 15.3478 3.12538 17.0194 4.79675C18.691 6.46837 19.6317 8.73418 19.6356 11.0982C19.6439 13.5577 18.623 15.9084 16.8195 17.5806C15.1562 19.2031 13.7471 21.0672 12.6395 23.1101L11.4221 25.2367C11.2814 25.493 11.0106 25.6509 10.7182 25.6475C10.4221 25.6499 10.1476 25.493 9.99949 25.2367L8.63555 22.8314C7.50362 20.8526 6.10165 19.041 4.47026 17.4487C2.9202 15.9382 1.97363 13.9152 1.80718 11.7575C1.64074 9.59972 2.26585 7.45523 3.56593 5.72515C4.86582 3.99488 6.75153 2.79739 8.87026 2.35664C9.47895 2.23707 10.0979 2.17814 10.7181 2.18059L10.718 2.18058ZM10.7181 0.714007C10.0186 0.710324 9.32082 0.779322 8.63549 0.919273C6.15609 1.41943 3.94502 2.80869 2.41828 4.82527C0.891543 6.84186 0.154667 9.34709 0.346193 11.869C0.537713 14.3912 1.64432 16.7562 3.45813 18.5193C4.98072 20.0281 6.29286 21.7348 7.35943 23.594L8.73814 25.9993C9.1472 26.7059 9.90175 27.1408 10.7181 27.1408C11.5345 27.1408 12.2891 26.7059 12.6981 25.9993L13.9155 23.8727C14.9543 21.9602 16.2689 20.2108 17.8168 18.6806C19.3457 17.2604 20.4109 15.4118 20.8722 13.3763C21.3338 11.341 21.1705 9.21396 20.4035 7.27299C19.6367 5.33203 18.3019 3.66757 16.5739 2.4973C14.846 1.32709 12.8051 0.705622 10.7181 0.713982L10.7181 0.714007ZM10.7181 8.04754C11.496 8.04754 12.2422 8.35643 12.7924 8.90667C13.3424 9.45667 13.6516 10.2028 13.6516 10.9807C13.6516 11.7588 13.3424 12.5047 12.7924 13.055C12.2422 13.605 11.496 13.9141 10.7181 13.9141C9.94028 13.9141 9.1941 13.605 8.64385 13.055C8.09385 12.5047 7.78472 11.7588 7.78472 10.9807C7.78472 10.2028 8.09385 9.45667 8.64385 8.90667C9.1941 8.35643 9.94028 8.04754 10.7181 8.04754ZM10.7181 6.58096V6.58072C9.55113 6.58072 8.43196 7.04429 7.60696 7.86954C6.7817 8.69479 6.31813 9.81396 6.31813 10.9807C6.31813 12.1477 6.7817 13.2669 7.60696 14.0921C8.43196 14.9171 9.55113 15.3807 10.7181 15.3807C11.8851 15.3807 13.0043 14.9171 13.8293 14.0921C14.6546 13.2669 15.1181 12.1477 15.1181 10.9807C15.1181 9.81396 14.6546 8.69479 13.8293 7.86954C13.0043 7.04429 11.8851 6.58072 10.7181 6.58072V6.58096Z" fill="white"/>
</svg>
